<svg xmlns="http://www.w3.org/2000/svg" viewBox="0 0 600 760" role="img" aria-labelledby="title"><title id="title">Схема шеи и декольте</title><rect width="600" height="760" rx="36" fill="#f7f1eb"/><g fill="none" stroke="#8c756c" stroke-width="5"><path d="M214 56c8 107-6 183-64 252C104 364 66 438 42 704M386 56c-8 107 6 183 64 252 46 56 84 130 108 396M151 308c79 71 219 71 298 0M42 704c131-74 385-74 516 0M300 360v285"/><path stroke-dasharray="10 12" d="M120 468c112 54 248 54 360 0M88 578c137 66 287 66 424 0"/></g><text x="218" y="40" fill="#d9c7be" font-family="sans-serif" font-size="20">Шея и декольте</text></svg>
